%TF.GenerationSoftware,KiCad,Pcbnew,9.0.2*%
%TF.CreationDate,2026-05-09T14:24:07-05:00*%
%TF.ProjectId,dlr_carrier,646c725f-6361-4727-9269-65722e6b6963,rev?*%
%TF.SameCoordinates,Original*%
%TF.FileFunction,Other,User*%
%FSLAX46Y46*%
G04 Gerber Fmt 4.6, Leading zero omitted, Abs format (unit mm)*
G04 Created by KiCad (PCBNEW 9.0.2) date 2026-05-09 14:24:07*
%MOMM*%
%LPD*%
G01*
G04 APERTURE LIST*
%ADD10C,0.050000*%
G04 APERTURE END LIST*
%TO.C,R7*%
D10*
X185530000Y-155930000D02*
X186470000Y-155930000D01*
X186470000Y-154070000D01*
X185530000Y-154070000D01*
X185530000Y-155930000D01*
%TO.C,U4*%
X206500000Y-127550000D02*
X206620000Y-127550000D01*
X206500000Y-132450000D02*
X206500000Y-127550000D01*
X206620000Y-126150000D02*
X213380000Y-126150000D01*
X206620000Y-127550000D02*
X206620000Y-126150000D01*
X206620000Y-132450000D02*
X206500000Y-132450000D01*
X206620000Y-133850000D02*
X206620000Y-132450000D01*
X213380000Y-126150000D02*
X213380000Y-127550000D01*
X213380000Y-127550000D02*
X213500000Y-127550000D01*
X213380000Y-132450000D02*
X213380000Y-133850000D01*
X213380000Y-133850000D02*
X206620000Y-133850000D01*
X213500000Y-127550000D02*
X213500000Y-132450000D01*
X213500000Y-132450000D02*
X213380000Y-132450000D01*
%TO.C,U6*%
X136820000Y-153570000D02*
X138250000Y-153570000D01*
X136820000Y-156430000D02*
X136820000Y-153570000D01*
X138250000Y-153250000D02*
X141750000Y-153250000D01*
X138250000Y-153570000D02*
X138250000Y-153250000D01*
X138250000Y-156430000D02*
X136820000Y-156430000D01*
X138250000Y-156750000D02*
X138250000Y-156430000D01*
X141750000Y-153250000D02*
X141750000Y-153570000D01*
X141750000Y-153570000D02*
X143180000Y-153570000D01*
X141750000Y-156430000D02*
X141750000Y-156750000D01*
X141750000Y-156750000D02*
X138250000Y-156750000D01*
X143180000Y-153570000D02*
X143180000Y-156430000D01*
X143180000Y-156430000D02*
X141750000Y-156430000D01*
%TO.C,C11*%
X130090000Y-131540000D02*
X131910000Y-131540000D01*
X131910000Y-132460000D01*
X130090000Y-132460000D01*
X130090000Y-131540000D01*
%TO.C,C23*%
X203090000Y-117540000D02*
X204910000Y-117540000D01*
X204910000Y-118460000D01*
X203090000Y-118460000D01*
X203090000Y-117540000D01*
%TO.C,C28*%
X149090000Y-147540000D02*
X150910000Y-147540000D01*
X150910000Y-148460000D01*
X149090000Y-148460000D01*
X149090000Y-147540000D01*
%TO.C,C2*%
X143090000Y-97540000D02*
X144910000Y-97540000D01*
X144910000Y-98460000D01*
X143090000Y-98460000D01*
X143090000Y-97540000D01*
%TO.C,C24*%
X213090000Y-119540000D02*
X214910000Y-119540000D01*
X214910000Y-120460000D01*
X213090000Y-120460000D01*
X213090000Y-119540000D01*
%TO.C,C27*%
X144090000Y-147540000D02*
X145910000Y-147540000D01*
X145910000Y-148460000D01*
X144090000Y-148460000D01*
X144090000Y-147540000D01*
%TO.C,C25*%
X129090000Y-147540000D02*
X130910000Y-147540000D01*
X130910000Y-148460000D01*
X129090000Y-148460000D01*
X129090000Y-147540000D01*
%TO.C,C26*%
X134090000Y-147540000D02*
X135910000Y-147540000D01*
X135910000Y-148460000D01*
X134090000Y-148460000D01*
X134090000Y-147540000D01*
%TO.C,C9*%
X149090000Y-117540000D02*
X150910000Y-117540000D01*
X150910000Y-118460000D01*
X149090000Y-118460000D01*
X149090000Y-117540000D01*
%TO.C,J11*%
X168230000Y-162230000D02*
X171770000Y-162230000D01*
X171770000Y-173390000D01*
X168230000Y-173390000D01*
X168230000Y-162230000D01*
%TO.C,R2*%
X169530000Y-108930000D02*
X170470000Y-108930000D01*
X170470000Y-107070000D01*
X169530000Y-107070000D01*
X169530000Y-108930000D01*
%TO.C,R6*%
X181530000Y-155930000D02*
X182470000Y-155930000D01*
X182470000Y-154070000D01*
X181530000Y-154070000D01*
X181530000Y-155930000D01*
%TO.C,R5*%
X169070000Y-129530000D02*
X170930000Y-129530000D01*
X170930000Y-130470000D01*
X169070000Y-130470000D01*
X169070000Y-129530000D01*
%TO.C,C7*%
X156750000Y-110500000D02*
X156750000Y-113500000D01*
X156750000Y-113500000D02*
X157600000Y-113500000D01*
X157600000Y-108750000D02*
X157600000Y-110500000D01*
X157600000Y-108750000D02*
X158750000Y-107600000D01*
X157600000Y-110500000D02*
X156750000Y-110500000D01*
X157600000Y-113500000D02*
X157600000Y-115250000D01*
X157600000Y-115250000D02*
X158750000Y-116400000D01*
X158750000Y-107600000D02*
X166400000Y-107600000D01*
X158750000Y-116400000D02*
X166400000Y-116400000D01*
X166400000Y-107600000D02*
X166400000Y-110500000D01*
X166400000Y-110500000D02*
X167250000Y-110500000D01*
X166400000Y-113500000D02*
X166400000Y-116400000D01*
X167250000Y-110500000D02*
X167250000Y-113500000D01*
X167250000Y-113500000D02*
X166400000Y-113500000D01*
%TO.C,C5*%
X124090000Y-113540000D02*
X125910000Y-113540000D01*
X125910000Y-114460000D01*
X124090000Y-114460000D01*
X124090000Y-113540000D01*
%TO.C,L2*%
X147650000Y-105650000D02*
X147650000Y-114350000D01*
X147650000Y-105650000D02*
X156350000Y-105650000D01*
X147650000Y-114350000D02*
X156350000Y-114350000D01*
X156350000Y-105650000D02*
X156350000Y-114350000D01*
%TO.C,C18*%
X177090000Y-117540000D02*
X178910000Y-117540000D01*
X178910000Y-118460000D01*
X177090000Y-118460000D01*
X177090000Y-117540000D01*
%TO.C,R8*%
X154530000Y-140930000D02*
X155470000Y-140930000D01*
X155470000Y-139070000D01*
X154530000Y-139070000D01*
X154530000Y-140930000D01*
%TO.C,C20*%
X185090000Y-117540000D02*
X186910000Y-117540000D01*
X186910000Y-118460000D01*
X185090000Y-118460000D01*
X185090000Y-117540000D01*
%TO.C,C6*%
X143090000Y-115540000D02*
X144910000Y-115540000D01*
X144910000Y-116460000D01*
X143090000Y-116460000D01*
X143090000Y-115540000D01*
%TO.C,C12*%
X141090000Y-131540000D02*
X142910000Y-131540000D01*
X142910000Y-132460000D01*
X141090000Y-132460000D01*
X141090000Y-131540000D01*
%TO.C,R3*%
X169530000Y-112930000D02*
X170470000Y-112930000D01*
X170470000Y-111070000D01*
X169530000Y-111070000D01*
X169530000Y-112930000D01*
%TO.C,C1*%
X122700000Y-94850000D02*
X127300000Y-94850000D01*
X127300000Y-97150000D01*
X122700000Y-97150000D01*
X122700000Y-94850000D01*
%TO.C,C19*%
X181090000Y-117540000D02*
X182910000Y-117540000D01*
X182910000Y-118460000D01*
X181090000Y-118460000D01*
X181090000Y-117540000D01*
%TO.C,C4*%
X123300000Y-107020000D02*
X126700000Y-107020000D01*
X126700000Y-108980000D01*
X123300000Y-108980000D01*
X123300000Y-107020000D01*
%TO.C,C3*%
X152700000Y-96850000D02*
X157300000Y-96850000D01*
X157300000Y-99150000D01*
X152700000Y-99150000D01*
X152700000Y-96850000D01*
%TO.C,C15*%
X197090000Y-103540000D02*
X198910000Y-103540000D01*
X198910000Y-104460000D01*
X197090000Y-104460000D01*
X197090000Y-103540000D01*
%TO.C,J9*%
X123230000Y-138230000D02*
X126770000Y-138230000D01*
X126770000Y-151930000D01*
X123230000Y-151930000D01*
X123230000Y-138230000D01*
%TO.C,R9*%
X154530000Y-144930000D02*
X155470000Y-144930000D01*
X155470000Y-143070000D01*
X154530000Y-143070000D01*
X154530000Y-144930000D01*
%TO.C,U2*%
X139950000Y-124500000D02*
X140950000Y-124500000D01*
X139950000Y-127500000D02*
X139950000Y-124500000D01*
X140950000Y-124300000D02*
X143050000Y-124300000D01*
X140950000Y-124500000D02*
X140950000Y-124300000D01*
X140950000Y-127500000D02*
X139950000Y-127500000D01*
X140950000Y-127700000D02*
X140950000Y-127500000D01*
X143050000Y-124300000D02*
X143050000Y-124500000D01*
X143050000Y-124500000D02*
X144050000Y-124500000D01*
X143050000Y-125610000D02*
X143050000Y-126390000D01*
X143050000Y-126390000D02*
X144050000Y-126390000D01*
X143050000Y-127500000D02*
X143050000Y-127700000D01*
X143050000Y-127700000D02*
X140950000Y-127700000D01*
X144050000Y-124500000D02*
X144050000Y-125610000D01*
X144050000Y-125610000D02*
X143050000Y-125610000D01*
X144050000Y-126390000D02*
X144050000Y-127500000D01*
X144050000Y-127500000D02*
X143050000Y-127500000D01*
%TO.C,J6*%
X175980000Y-126000000D02*
X175980000Y-124000000D01*
X176680000Y-123200000D02*
X176880000Y-123200000D01*
X176680000Y-124000000D02*
X175980000Y-124000000D01*
X176680000Y-124000000D02*
X176680000Y-123200000D01*
X176680000Y-126000000D02*
X175980000Y-126000000D01*
X176680000Y-126800000D02*
X176680000Y-126000000D01*
X176680000Y-126800000D02*
X176880000Y-126800000D01*
X176880000Y-123200000D02*
X176880000Y-122500000D01*
X176880000Y-127500000D02*
X176880000Y-126800000D01*
X180080000Y-122500000D02*
X176880000Y-122500000D01*
X180080000Y-123200000D02*
X180080000Y-122500000D01*
X180080000Y-123200000D02*
X180280000Y-123200000D01*
X180080000Y-126800000D02*
X180280000Y-126800000D01*
X180080000Y-127500000D02*
X176880000Y-127500000D01*
X180080000Y-127500000D02*
X180080000Y-126800000D01*
X180280000Y-126800000D02*
X180280000Y-123200000D01*
%TO.C,J3*%
X121960000Y-154290000D02*
X133130000Y-154290000D01*
X133130000Y-165100000D01*
X121960000Y-165100000D01*
X121960000Y-154290000D01*
%TO.C,R10*%
X154530000Y-148930000D02*
X155470000Y-148930000D01*
X155470000Y-147070000D01*
X154530000Y-147070000D01*
X154530000Y-148930000D01*
%TO.C,C13*%
X147090000Y-131540000D02*
X148910000Y-131540000D01*
X148910000Y-132460000D01*
X147090000Y-132460000D01*
X147090000Y-131540000D01*
%TO.C,C14*%
X187090000Y-103540000D02*
X188910000Y-103540000D01*
X188910000Y-104460000D01*
X187090000Y-104460000D01*
X187090000Y-103540000D01*
%TO.C,C22*%
X189090000Y-111540000D02*
X190910000Y-111540000D01*
X190910000Y-112460000D01*
X189090000Y-112460000D01*
X189090000Y-111540000D01*
%TO.C,J4*%
X134300000Y-107540000D02*
X135800000Y-107540000D01*
X134300000Y-112460000D02*
X134300000Y-107540000D01*
X135800000Y-107300000D02*
X140200000Y-107300000D01*
X135800000Y-107540000D02*
X135800000Y-107300000D01*
X135800000Y-112460000D02*
X134300000Y-112460000D01*
X135800000Y-112700000D02*
X135800000Y-112460000D01*
X140200000Y-107300000D02*
X140200000Y-107540000D01*
X140200000Y-107540000D02*
X141700000Y-107540000D01*
X140200000Y-112460000D02*
X140200000Y-112700000D01*
X140200000Y-112700000D02*
X135800000Y-112700000D01*
X141700000Y-107540000D02*
X141700000Y-112460000D01*
X141700000Y-112460000D02*
X140200000Y-112460000D01*
%TO.C,L1*%
X146700000Y-88900000D02*
X146700000Y-95100000D01*
X146700000Y-88900000D02*
X153300000Y-88900000D01*
X153300000Y-88900000D02*
X153300000Y-95100000D01*
X153300000Y-95100000D02*
X146700000Y-95100000D01*
%TO.C,U1*%
X122950000Y-124500000D02*
X123950000Y-124500000D01*
X122950000Y-127500000D02*
X122950000Y-124500000D01*
X123950000Y-124300000D02*
X126050000Y-124300000D01*
X123950000Y-124500000D02*
X123950000Y-124300000D01*
X123950000Y-127500000D02*
X122950000Y-127500000D01*
X123950000Y-127700000D02*
X123950000Y-127500000D01*
X126050000Y-124300000D02*
X126050000Y-124500000D01*
X126050000Y-124500000D02*
X127050000Y-124500000D01*
X126050000Y-125610000D02*
X126050000Y-126390000D01*
X126050000Y-126390000D02*
X127050000Y-126390000D01*
X126050000Y-127500000D02*
X126050000Y-127700000D01*
X126050000Y-127700000D02*
X123950000Y-127700000D01*
X127050000Y-124500000D02*
X127050000Y-125610000D01*
X127050000Y-125610000D02*
X126050000Y-125610000D01*
X127050000Y-126390000D02*
X127050000Y-127500000D01*
X127050000Y-127500000D02*
X126050000Y-127500000D01*
%TO.C,J1*%
X106960000Y-86290000D02*
X118130000Y-86290000D01*
X118130000Y-97100000D01*
X106960000Y-97100000D01*
X106960000Y-86290000D01*
%TO.C,C8*%
X160300000Y-117020000D02*
X163700000Y-117020000D01*
X163700000Y-118980000D01*
X160300000Y-118980000D01*
X160300000Y-117020000D01*
%TO.C,C16*%
X207090000Y-103540000D02*
X208910000Y-103540000D01*
X208910000Y-104460000D01*
X207090000Y-104460000D01*
X207090000Y-103540000D01*
%TO.C,J10*%
X138230000Y-138230000D02*
X141770000Y-138230000D01*
X141770000Y-149390000D01*
X138230000Y-149390000D01*
X138230000Y-138230000D01*
%TO.C,J7*%
X201020000Y-152540000D02*
X201020000Y-167690000D01*
X201020000Y-167690000D02*
X213020000Y-167690000D01*
X213020000Y-152540000D02*
X201020000Y-152540000D01*
X213020000Y-167690000D02*
X213020000Y-152540000D01*
%TO.C,U5*%
X122000000Y-152560000D02*
X128000000Y-152560000D01*
X122000000Y-165060000D02*
X122000000Y-152560000D01*
X128000000Y-152560000D02*
X128000000Y-165060000D01*
X128000000Y-165060000D02*
X122000000Y-165060000D01*
%TO.C,J2*%
X135870000Y-90870000D02*
X136250000Y-90870000D01*
X135870000Y-93130000D02*
X135870000Y-90870000D01*
X136250000Y-90250000D02*
X136870000Y-90250000D01*
X136250000Y-90870000D02*
X136250000Y-90250000D01*
X136250000Y-93130000D02*
X135870000Y-93130000D01*
X136250000Y-93750000D02*
X136250000Y-93130000D01*
X136870000Y-89870000D02*
X139130000Y-89870000D01*
X136870000Y-90250000D02*
X136870000Y-89870000D01*
X136870000Y-93750000D02*
X136250000Y-93750000D01*
X136870000Y-94130000D02*
X136870000Y-93750000D01*
X139130000Y-89870000D02*
X139130000Y-90250000D01*
X139130000Y-90250000D02*
X139750000Y-90250000D01*
X139130000Y-93750000D02*
X139130000Y-94130000D01*
X139130000Y-94130000D02*
X136870000Y-94130000D01*
X139750000Y-90250000D02*
X139750000Y-90870000D01*
X139750000Y-90870000D02*
X140130000Y-90870000D01*
X139750000Y-93130000D02*
X139750000Y-93750000D01*
X139750000Y-93750000D02*
X139130000Y-93750000D01*
X140130000Y-90870000D02*
X140130000Y-93130000D01*
X140130000Y-93130000D02*
X139750000Y-93130000D01*
%TO.C,C29*%
X149540000Y-158910000D02*
X150460000Y-158910000D01*
X150460000Y-157090000D01*
X149540000Y-157090000D01*
X149540000Y-158910000D01*
%TO.C,C21*%
X171090000Y-119540000D02*
X172910000Y-119540000D01*
X172910000Y-120460000D01*
X171090000Y-120460000D01*
X171090000Y-119540000D01*
%TO.C,R11*%
X154530000Y-152930000D02*
X155470000Y-152930000D01*
X155470000Y-151070000D01*
X154530000Y-151070000D01*
X154530000Y-152930000D01*
%TO.C,D1*%
X121500000Y-86250000D02*
X128500000Y-86250000D01*
X121500000Y-89750000D02*
X121500000Y-86250000D01*
X128500000Y-86250000D02*
X128500000Y-89750000D01*
X128500000Y-89750000D02*
X121500000Y-89750000D01*
%TO.C,J5*%
X192190000Y-91610000D02*
X203810000Y-91610000D01*
X203810000Y-96390000D01*
X192190000Y-96390000D01*
X192190000Y-91610000D01*
%TO.C,C10*%
X124090000Y-131540000D02*
X125910000Y-131540000D01*
X125910000Y-132460000D01*
X124090000Y-132460000D01*
X124090000Y-131540000D01*
%TO.C,R4*%
X169530000Y-116930000D02*
X170470000Y-116930000D01*
X170470000Y-115070000D01*
X169530000Y-115070000D01*
X169530000Y-116930000D01*
%TO.C,U3*%
X181050000Y-125200000D02*
X202950000Y-125200000D01*
X202950000Y-150800000D01*
X181050000Y-150800000D01*
X181050000Y-125200000D01*
%TO.C,R1*%
X157720000Y-90870000D02*
X162280000Y-90870000D01*
X162280000Y-93130000D01*
X157720000Y-93130000D01*
X157720000Y-90870000D01*
%TO.C,C17*%
X213540000Y-94910000D02*
X214460000Y-94910000D01*
X214460000Y-93090000D01*
X213540000Y-93090000D01*
X213540000Y-94910000D01*
%TO.C,J8*%
X108230000Y-143220000D02*
X111770000Y-143220000D01*
X111770000Y-179800000D01*
X108230000Y-179800000D01*
X108230000Y-143220000D01*
%TD*%
M02*
