M48
; DRILL file {KiCad 9.0.2} date 2026-05-09T14:24:08-0500
; FORMAT={-:-/ absolute / metric / decimal}
; #@! TF.CreationDate,2026-05-09T14:24:08-05:00
; #@! TF.GenerationSoftware,Kicad,Pcbnew,9.0.2
; #@! TF.FileFunction,MixedPlating,1,2
FMAT,2
METRIC
; #@! TA.AperFunction,Plated,PTH,ViaDrill
T1C0.300
; #@! TA.AperFunction,Plated,PTH,ComponentDrill
T2C0.800
; #@! TA.AperFunction,Plated,PTH,ComponentDrill
T3C1.000
; #@! TA.AperFunction,Plated,PTH,ComponentDrill
T4C1.300
%
G90
G05
T1
X191.493Y-149.282
X192.252Y-124.884
T2
X125.0Y-155.0
X125.0Y-157.54
X125.0Y-160.08
X125.0Y-162.62
T3
X110.0Y-145.0
X110.0Y-147.54
X110.0Y-150.08
X110.0Y-152.62
X110.0Y-155.16
X110.0Y-157.7
X110.0Y-160.24
X110.0Y-162.78
X110.0Y-165.32
X110.0Y-167.86
X110.0Y-170.4
X110.0Y-172.94
X110.0Y-175.48
X110.0Y-178.02
X125.0Y-140.0
X125.0Y-142.54
X125.0Y-145.08
X125.0Y-147.62
X125.0Y-150.16
X140.0Y-140.0
X140.0Y-142.54
X140.0Y-145.08
X140.0Y-147.62
X170.0Y-164.0
X170.0Y-166.54
X170.0Y-169.08
X170.0Y-171.62
T4
X110.0Y-92.0
X115.08Y-92.0
X125.0Y-160.0
X130.08Y-160.0
M30
