%TF.GenerationSoftware,KiCad,Pcbnew,9.0.2*%
%TF.CreationDate,2026-05-09T14:24:07-05:00*%
%TF.ProjectId,dlr_carrier,646c725f-6361-4727-9269-65722e6b6963,rev?*%
%TF.SameCoordinates,Original*%
%TF.FileFunction,Soldermask,Top*%
%TF.FilePolarity,Negative*%
%FSLAX46Y46*%
G04 Gerber Fmt 4.6, Leading zero omitted, Abs format (unit mm)*
G04 Created by KiCad (PCBNEW 9.0.2) date 2026-05-09 14:24:07*
%MOMM*%
%LPD*%
G01*
G04 APERTURE LIST*
G04 Aperture macros list*
%AMRoundRect*
0 Rectangle with rounded corners*
0 $1 Rounding radius*
0 $2 $3 $4 $5 $6 $7 $8 $9 X,Y pos of 4 corners*
0 Add a 4 corners polygon primitive as box body*
4,1,4,$2,$3,$4,$5,$6,$7,$8,$9,$2,$3,0*
0 Add four circle primitives for the rounded corners*
1,1,$1+$1,$2,$3*
1,1,$1+$1,$4,$5*
1,1,$1+$1,$6,$7*
1,1,$1+$1,$8,$9*
0 Add four rect primitives between the rounded corners*
20,1,$1+$1,$2,$3,$4,$5,0*
20,1,$1+$1,$4,$5,$6,$7,0*
20,1,$1+$1,$6,$7,$8,$9,0*
20,1,$1+$1,$8,$9,$2,$3,0*%
G04 Aperture macros list end*
%ADD10RoundRect,0.135000X0.185000X-0.135000X0.185000X0.135000X-0.185000X0.135000X-0.185000X-0.135000X0*%
%ADD11RoundRect,0.100000X0.100000X-0.637500X0.100000X0.637500X-0.100000X0.637500X-0.100000X-0.637500X0*%
%ADD12RoundRect,0.087500X-0.725000X-0.087500X0.725000X-0.087500X0.725000X0.087500X-0.725000X0.087500X0*%
%ADD13RoundRect,0.140000X-0.140000X-0.170000X0.140000X-0.170000X0.140000X0.170000X-0.140000X0.170000X0*%
%ADD14R,1.700000X1.700000*%
%ADD15C,1.700000*%
%ADD16RoundRect,0.135000X-0.135000X-0.185000X0.135000X-0.185000X0.135000X0.185000X-0.135000X0.185000X0*%
%ADD17RoundRect,0.250000X-1.500000X-1.000000X1.500000X-1.000000X1.500000X1.000000X-1.500000X1.000000X0*%
%ADD18R,2.600000X8.200000*%
%ADD19RoundRect,0.250000X-0.325000X-0.650000X0.325000X-0.650000X0.325000X0.650000X-0.325000X0.650000X0*%
%ADD20RoundRect,0.250000X-0.250000X-0.475000X0.250000X-0.475000X0.250000X0.475000X-0.250000X0.475000X0*%
%ADD21RoundRect,0.150000X-0.512500X-0.150000X0.512500X-0.150000X0.512500X0.150000X-0.512500X0.150000X0*%
%ADD22RoundRect,0.250000X-0.275000X-0.250000X0.275000X-0.250000X0.275000X0.250000X-0.275000X0.250000X0*%
%ADD23RoundRect,0.250000X-0.850000X-0.275000X0.850000X-0.275000X0.850000X0.275000X-0.850000X0.275000X0*%
%ADD24RoundRect,0.250000X-1.050000X-1.050000X1.050000X-1.050000X1.050000X1.050000X-1.050000X1.050000X0*%
%ADD25C,2.600000*%
%ADD26RoundRect,0.150000X-0.650000X-0.150000X0.650000X-0.150000X0.650000X0.150000X-0.650000X0.150000X0*%
%ADD27R,2.410000X3.100000*%
%ADD28R,1.600000X5.700000*%
%ADD29R,0.900000X0.700000*%
%ADD30R,0.700000X0.700000*%
%ADD31R,1.200000X0.650000*%
%ADD32R,0.450000X2.900000*%
%ADD33R,0.450000X1.900000*%
%ADD34R,0.450000X2.400000*%
%ADD35R,1.400000X0.500000*%
%ADD36R,0.300000X0.600000*%
%ADD37R,0.750000X0.700000*%
%ADD38R,1.500000X1.500000*%
%ADD39C,1.500000*%
%ADD40RoundRect,0.062500X-0.375000X-0.062500X0.375000X-0.062500X0.375000X0.062500X-0.375000X0.062500X0*%
%ADD41RoundRect,0.062500X-0.062500X-0.375000X0.062500X-0.375000X0.062500X0.375000X-0.062500X0.375000X0*%
%ADD42RoundRect,0.140000X0.170000X-0.140000X0.170000X0.140000X-0.170000X0.140000X-0.170000X-0.140000X0*%
%ADD43RoundRect,0.250000X-1.000000X-0.650000X1.000000X-0.650000X1.000000X0.650000X-1.000000X0.650000X0*%
%ADD44RoundRect,0.050000X-0.050000X-0.300000X0.050000X-0.300000X0.050000X0.300000X-0.050000X0.300000X0*%
%ADD45RoundRect,0.140000X-0.410000X-0.210000X0.410000X-0.210000X0.410000X0.210000X-0.410000X0.210000X0*%
%ADD46RoundRect,0.140000X-0.210000X-0.410000X0.210000X-0.410000X0.210000X0.410000X-0.210000X0.410000X0*%
%ADD47RoundRect,0.200000X-0.300000X-0.300000X0.300000X-0.300000X0.300000X0.300000X-0.300000X0.300000X0*%
%ADD48RoundRect,0.200000X0.300000X-0.300000X0.300000X0.300000X-0.300000X0.300000X-0.300000X-0.300000X0*%
%ADD49RoundRect,0.250000X-0.312500X-0.625000X0.312500X-0.625000X0.312500X0.625000X-0.312500X0.625000X0*%
G04 APERTURE END LIST*
%TO.C,J6*%
G36*
X177485000Y-124060000D02*
G01*
X179575000Y-124060000D01*
X179575000Y-125940000D01*
X177485000Y-125940000D01*
X177485000Y-124060000D01*
G37*
%TD*%
D10*
%TO.C,R7*%
X186000000Y-155510000D03*
X186000000Y-154490000D03*
%TD*%
D11*
%TO.C,U4*%
X207075000Y-132862500D03*
X207725000Y-132862500D03*
X208375000Y-132862500D03*
X209025000Y-132862500D03*
X209675000Y-132862500D03*
X210325000Y-132862500D03*
X210975000Y-132862500D03*
X211625000Y-132862500D03*
X212275000Y-132862500D03*
X212925000Y-132862500D03*
X212925000Y-127137500D03*
X212275000Y-127137500D03*
X211625000Y-127137500D03*
X210975000Y-127137500D03*
X210325000Y-127137500D03*
X209675000Y-127137500D03*
X209025000Y-127137500D03*
X208375000Y-127137500D03*
X207725000Y-127137500D03*
X207075000Y-127137500D03*
%TD*%
D12*
%TO.C,U6*%
X137887500Y-154000000D03*
X137887500Y-154500000D03*
X137887500Y-155000000D03*
X137887500Y-155500000D03*
X137887500Y-156000000D03*
X142112500Y-156000000D03*
X142112500Y-155500000D03*
X142112500Y-155000000D03*
X142112500Y-154500000D03*
X142112500Y-154000000D03*
%TD*%
D13*
%TO.C,C11*%
X130520000Y-132000000D03*
X131480000Y-132000000D03*
%TD*%
%TO.C,C23*%
X203520000Y-118000000D03*
X204480000Y-118000000D03*
%TD*%
%TO.C,C28*%
X149520000Y-148000000D03*
X150480000Y-148000000D03*
%TD*%
%TO.C,C2*%
X143520000Y-98000000D03*
X144480000Y-98000000D03*
%TD*%
%TO.C,C24*%
X213520000Y-120000000D03*
X214480000Y-120000000D03*
%TD*%
%TO.C,C27*%
X144520000Y-148000000D03*
X145480000Y-148000000D03*
%TD*%
%TO.C,C25*%
X129520000Y-148000000D03*
X130480000Y-148000000D03*
%TD*%
%TO.C,C26*%
X134520000Y-148000000D03*
X135480000Y-148000000D03*
%TD*%
%TO.C,C9*%
X149520000Y-118000000D03*
X150480000Y-118000000D03*
%TD*%
D14*
%TO.C,J11*%
X170000000Y-164000000D03*
D15*
X170000000Y-166540000D03*
X170000000Y-169080000D03*
X170000000Y-171620000D03*
%TD*%
D10*
%TO.C,R2*%
X170000000Y-108510000D03*
X170000000Y-107490000D03*
%TD*%
%TO.C,R6*%
X182000000Y-155510000D03*
X182000000Y-154490000D03*
%TD*%
D16*
%TO.C,R5*%
X169490000Y-130000000D03*
X170510000Y-130000000D03*
%TD*%
D17*
%TO.C,C7*%
X158750000Y-112000000D03*
X165250000Y-112000000D03*
%TD*%
D13*
%TO.C,C5*%
X124520000Y-114000000D03*
X125480000Y-114000000D03*
%TD*%
D18*
%TO.C,L2*%
X149200000Y-110000000D03*
X154800000Y-110000000D03*
%TD*%
D13*
%TO.C,C18*%
X177520000Y-118000000D03*
X178480000Y-118000000D03*
%TD*%
D10*
%TO.C,R8*%
X155000000Y-140510000D03*
X155000000Y-139490000D03*
%TD*%
D13*
%TO.C,C20*%
X185520000Y-118000000D03*
X186480000Y-118000000D03*
%TD*%
%TO.C,C6*%
X143520000Y-116000000D03*
X144480000Y-116000000D03*
%TD*%
%TO.C,C12*%
X141520000Y-132000000D03*
X142480000Y-132000000D03*
%TD*%
D10*
%TO.C,R3*%
X170000000Y-112510000D03*
X170000000Y-111490000D03*
%TD*%
D19*
%TO.C,C1*%
X123525000Y-96000000D03*
X126475000Y-96000000D03*
%TD*%
D13*
%TO.C,C19*%
X181520000Y-118000000D03*
X182480000Y-118000000D03*
%TD*%
D20*
%TO.C,C4*%
X124050000Y-108000000D03*
X125950000Y-108000000D03*
%TD*%
D19*
%TO.C,C3*%
X153525000Y-98000000D03*
X156475000Y-98000000D03*
%TD*%
D13*
%TO.C,C15*%
X197520000Y-104000000D03*
X198480000Y-104000000D03*
%TD*%
D14*
%TO.C,J9*%
X125000000Y-140000000D03*
D15*
X125000000Y-142540000D03*
X125000000Y-145080000D03*
X125000000Y-147620000D03*
X125000000Y-150160000D03*
%TD*%
D10*
%TO.C,R9*%
X155000000Y-144510000D03*
X155000000Y-143490000D03*
%TD*%
D21*
%TO.C,U2*%
X140862500Y-125050000D03*
X140862500Y-126000000D03*
X140862500Y-126950000D03*
X143137500Y-126950000D03*
X143137500Y-125050000D03*
%TD*%
D22*
%TO.C,J6*%
X176950000Y-125000000D03*
D23*
X178475000Y-123525000D03*
X178475000Y-126475000D03*
%TD*%
D24*
%TO.C,J3*%
X125000000Y-160000000D03*
D25*
X130080000Y-160000000D03*
%TD*%
D10*
%TO.C,R10*%
X155000000Y-148510000D03*
X155000000Y-147490000D03*
%TD*%
D13*
%TO.C,C13*%
X147520000Y-132000000D03*
X148480000Y-132000000D03*
%TD*%
%TO.C,C14*%
X187520000Y-104000000D03*
X188480000Y-104000000D03*
%TD*%
%TO.C,C22*%
X189520000Y-112000000D03*
X190480000Y-112000000D03*
%TD*%
D26*
%TO.C,J4*%
X135350000Y-108095000D03*
X135350000Y-109365000D03*
X135350000Y-110635000D03*
X135350000Y-111905000D03*
X140650000Y-111905000D03*
X140650000Y-110635000D03*
X140650000Y-109365000D03*
X140650000Y-108095000D03*
D27*
X138000000Y-110000000D03*
%TD*%
D28*
%TO.C,L1*%
X147650000Y-92000000D03*
X152350000Y-92000000D03*
%TD*%
D21*
%TO.C,U1*%
X123862500Y-125050000D03*
X123862500Y-126000000D03*
X123862500Y-126950000D03*
X126137500Y-126950000D03*
X126137500Y-125050000D03*
%TD*%
D24*
%TO.C,J1*%
X110000000Y-92000000D03*
D25*
X115080000Y-92000000D03*
%TD*%
D20*
%TO.C,C8*%
X161050000Y-118000000D03*
X162950000Y-118000000D03*
%TD*%
D13*
%TO.C,C16*%
X207520000Y-104000000D03*
X208480000Y-104000000D03*
%TD*%
D14*
%TO.C,J10*%
X140000000Y-140000000D03*
D15*
X140000000Y-142540000D03*
X140000000Y-145080000D03*
X140000000Y-147620000D03*
%TD*%
D29*
%TO.C,J7*%
X205460000Y-155540000D03*
X208000000Y-155540000D03*
X210540000Y-155540000D03*
X205460000Y-158710000D03*
X208000000Y-158710000D03*
X210540000Y-158710000D03*
D30*
X212270000Y-162040000D03*
D31*
X208550000Y-165715000D03*
D32*
X201445000Y-154840000D03*
D33*
X201445000Y-159690000D03*
D34*
X201445000Y-164840000D03*
D35*
X205800000Y-166790000D03*
D36*
X206780000Y-153690000D03*
X209220000Y-153690000D03*
D35*
X210220000Y-166790000D03*
D37*
X212095000Y-163840000D03*
D32*
X212595000Y-154840000D03*
D33*
X212595000Y-159690000D03*
%TD*%
D38*
%TO.C,U5*%
X125000000Y-155000000D03*
D39*
X125000000Y-157540000D03*
X125000000Y-160080000D03*
X125000000Y-162620000D03*
%TD*%
D40*
%TO.C,J2*%
X136562500Y-91250000D03*
X136562500Y-91750000D03*
X136562500Y-92250000D03*
X136562500Y-92750000D03*
D41*
X137250000Y-93437500D03*
X137750000Y-93437500D03*
X138250000Y-93437500D03*
X138750000Y-93437500D03*
D40*
X139437500Y-92750000D03*
X139437500Y-92250000D03*
X139437500Y-91750000D03*
X139437500Y-91250000D03*
D41*
X138750000Y-90562500D03*
X138250000Y-90562500D03*
X137750000Y-90562500D03*
X137250000Y-90562500D03*
D38*
X138000000Y-92000000D03*
%TD*%
D42*
%TO.C,C29*%
X150000000Y-158480000D03*
X150000000Y-157520000D03*
%TD*%
D13*
%TO.C,C21*%
X171520000Y-120000000D03*
X172480000Y-120000000D03*
%TD*%
D10*
%TO.C,R11*%
X155000000Y-152510000D03*
X155000000Y-151490000D03*
%TD*%
D43*
%TO.C,D1*%
X123000000Y-88000000D03*
X127000000Y-88000000D03*
%TD*%
D44*
%TO.C,J5*%
X194200000Y-95540000D03*
X194200000Y-92460000D03*
X194600000Y-95540000D03*
X194600000Y-92460000D03*
X195000000Y-95540000D03*
X195000000Y-92460000D03*
X195400000Y-95540000D03*
X195400000Y-92460000D03*
X195800000Y-95540000D03*
X195800000Y-92460000D03*
X196200000Y-95540000D03*
X196200000Y-92460000D03*
X196600000Y-95540000D03*
X196600000Y-92460000D03*
X197000000Y-95540000D03*
X197000000Y-92460000D03*
X197400000Y-95540000D03*
X197400000Y-92460000D03*
X197800000Y-95540000D03*
X197800000Y-92460000D03*
X198200000Y-95540000D03*
X198200000Y-92460000D03*
X198600000Y-95540000D03*
X198600000Y-92460000D03*
X199000000Y-95540000D03*
X199000000Y-92460000D03*
X199400000Y-95540000D03*
X199400000Y-92460000D03*
X199800000Y-95540000D03*
X199800000Y-92460000D03*
X200200000Y-95540000D03*
X200200000Y-92460000D03*
X200600000Y-95540000D03*
X200600000Y-92460000D03*
X201000000Y-95540000D03*
X201000000Y-92460000D03*
X201400000Y-95540000D03*
X201400000Y-92460000D03*
X201800000Y-95540000D03*
X201800000Y-92460000D03*
%TD*%
D13*
%TO.C,C10*%
X124520000Y-132000000D03*
X125480000Y-132000000D03*
%TD*%
D10*
%TO.C,R4*%
X170000000Y-116510000D03*
X170000000Y-115490000D03*
%TD*%
D45*
%TO.C,U3*%
X182850000Y-128300000D03*
X182850000Y-129400000D03*
X182850000Y-130500000D03*
X182850000Y-131600000D03*
X182850000Y-132700000D03*
X182850000Y-133800000D03*
X182850000Y-134900000D03*
X182850000Y-136000000D03*
X182850000Y-137100000D03*
X182850000Y-138200000D03*
X182850000Y-139900000D03*
X182850000Y-141000000D03*
X182850000Y-142100000D03*
X182850000Y-143200000D03*
X182850000Y-144300000D03*
X182850000Y-145400000D03*
X182850000Y-146500000D03*
X182850000Y-147600000D03*
D46*
X184550000Y-149000000D03*
X185650000Y-149000000D03*
X186750000Y-149000000D03*
X187850000Y-149000000D03*
X188950000Y-149000000D03*
X190050000Y-149000000D03*
X192550000Y-149000000D03*
X193650000Y-149000000D03*
X194750000Y-149000000D03*
X195850000Y-149000000D03*
X196950000Y-149000000D03*
X198050000Y-149000000D03*
X199150000Y-149000000D03*
D45*
X201150000Y-147600000D03*
X201150000Y-146500000D03*
X201150000Y-145400000D03*
X201150000Y-144300000D03*
X201150000Y-143200000D03*
X201150000Y-142100000D03*
X201150000Y-141000000D03*
X201150000Y-139900000D03*
X201150000Y-138200000D03*
X201150000Y-137100000D03*
X201150000Y-136000000D03*
X201150000Y-134900000D03*
X201150000Y-133800000D03*
X201150000Y-132700000D03*
X201150000Y-131600000D03*
X201150000Y-130500000D03*
X201150000Y-129400000D03*
X201150000Y-128300000D03*
D46*
X199150000Y-127000000D03*
X198050000Y-127000000D03*
X196950000Y-127000000D03*
X195850000Y-127000000D03*
X194750000Y-127000000D03*
X193650000Y-127000000D03*
X192550000Y-127000000D03*
X190050000Y-127000000D03*
X188950000Y-127000000D03*
X187850000Y-127000000D03*
X186750000Y-127000000D03*
X185650000Y-127000000D03*
X184550000Y-127000000D03*
D47*
X186050000Y-133750000D03*
X186050000Y-135450000D03*
X186050000Y-137150000D03*
X186050000Y-138850000D03*
X186050000Y-140550000D03*
X186050000Y-142250000D03*
D48*
X189450000Y-145650000D03*
X191150000Y-145650000D03*
X192850000Y-145650000D03*
X194550000Y-145650000D03*
D47*
X197950000Y-142250000D03*
X197950000Y-140550000D03*
X197950000Y-138850000D03*
X197950000Y-137150000D03*
X197950000Y-135450000D03*
X197950000Y-133750000D03*
D48*
X194550000Y-130350000D03*
X192850000Y-130350000D03*
X191150000Y-130350000D03*
X189450000Y-130350000D03*
D47*
X187750000Y-133750000D03*
X187750000Y-135450000D03*
X187750000Y-137150000D03*
X187750000Y-138850000D03*
X187750000Y-140550000D03*
X187750000Y-142250000D03*
D48*
X189450000Y-143950000D03*
X191150000Y-143950000D03*
X192850000Y-143950000D03*
X194550000Y-143950000D03*
D47*
X196250000Y-142250000D03*
X196250000Y-140550000D03*
X196250000Y-138850000D03*
X196250000Y-137150000D03*
X196250000Y-135450000D03*
X196250000Y-133750000D03*
D48*
X194550000Y-132050000D03*
X192850000Y-132050000D03*
X191150000Y-132050000D03*
X189450000Y-132050000D03*
%TD*%
D49*
%TO.C,R1*%
X158537500Y-92000000D03*
X161462500Y-92000000D03*
%TD*%
D42*
%TO.C,C17*%
X214000000Y-94480000D03*
X214000000Y-93520000D03*
%TD*%
D14*
%TO.C,J8*%
X110000000Y-145000000D03*
D15*
X110000000Y-147540000D03*
X110000000Y-150080000D03*
X110000000Y-152620000D03*
X110000000Y-155160000D03*
X110000000Y-157700000D03*
X110000000Y-160240000D03*
X110000000Y-162780000D03*
X110000000Y-165320000D03*
X110000000Y-167860000D03*
X110000000Y-170400000D03*
X110000000Y-172940000D03*
X110000000Y-175480000D03*
X110000000Y-178020000D03*
%TD*%
M02*
